<svg width="563" height="152" viewBox="0 0 563 152" fill="none" xmlns="http://www.w3.org/2000/svg">
<path d="M79.4 114.338C77.84 118.538 75.51 120.248 71.62 120.248C67.73 120.248 65.4 118.688 63.53 114.338L34.9 50.3881L29.61 130.208C29.3 133.788 27.28 135.658 23.07 135.658C18.86 135.658 16.85 133.788 17 130.208L23.7 41.2081C24.01 35.6081 25.88 32.9581 32.41 32.9581C38.01 32.9581 40.97 35.1381 43.3 41.0481L71.93 104.688L100.56 41.0481C102.74 35.4481 105.38 32.9581 111.45 32.9581C117.52 32.9581 119.54 35.7581 119.85 41.2081L126.54 130.208C126.7 133.788 124.83 135.658 120.47 135.658C116.11 135.658 113.93 133.788 113.62 130.208L108.02 50.3881L79.39 114.338H79.4Z" fill="#4E342E"/>
<path d="M228.309 131.928C228.309 134.108 226.909 135.658 222.239 135.658C217.569 135.658 215.549 134.258 214.459 130.678L206.059 107.958H162.489L153.929 130.678C152.839 133.948 151.129 135.658 146.459 135.658C141.789 135.658 140.549 134.098 140.549 131.928C140.549 130.528 141.169 128.508 141.639 127.258L175.399 39.9681C177.419 34.6781 179.449 32.9681 184.739 32.9681C190.499 32.9681 192.209 34.9881 194.079 39.9681L227.219 127.258C227.689 128.498 228.309 130.528 228.309 131.928ZM201.859 96.6081L184.429 49.4581L166.689 96.6081H201.859Z" fill="#4E342E"/>
<path d="M248.909 61.1175L248.909 22.6778L309.165 61.1175L248.909 99.5573L248.909 61.1175Z" fill="#FAB282"/>
<path fill-rule="evenodd" clip-rule="evenodd" d="M245.737 16.8904C247.85 15.7318 250.427 15.8174 252.459 17.1136L312.714 55.5534C314.615 56.7656 315.765 58.8637 315.765 61.1176C315.765 63.3715 314.615 65.4695 312.714 66.6818L255.509 103.176V129.058C255.509 132.703 252.555 135.658 248.909 135.658C245.264 135.658 242.309 132.703 242.309 129.058V22.6778C242.309 20.2676 243.623 18.049 245.737 16.8904ZM255.509 87.5182L296.893 61.1176L255.509 34.7169V87.5182Z" fill="#4E342E"/>
<path d="M336.365 61.1175L336.365 22.6778L396.62 61.1175L336.365 99.5573L336.365 61.1175Z" fill="#A3D9F2"/>
<path fill-rule="evenodd" clip-rule="evenodd" d="M333.192 16.8904C335.306 15.7318 337.883 15.8174 339.914 17.1136L400.17 55.5534C402.07 56.7656 403.22 58.8637 403.22 61.1176C403.22 63.3715 402.07 65.4695 400.17 66.6818L342.965 103.176V129.058C342.965 132.703 340.01 135.658 336.365 135.658C332.72 135.658 329.765 132.703 329.765 129.058V22.6778C329.765 20.2676 331.079 18.049 333.192 16.8904ZM342.965 87.5182L384.349 61.1176L342.965 34.7169V87.5182Z" fill="#4E342E"/>
<path d="M467.02 123.838C470.6 123.838 472.47 125.708 472.47 129.748C472.47 133.788 470.6 135.658 467.02 135.658H424.07C419.25 135.658 417.22 133.638 417.22 128.808V39.1881C417.22 35.6081 419.24 33.7381 423.76 33.7381C428.28 33.7381 430.45 35.6081 430.45 39.1881V123.838H467.02Z" fill="#4E342E"/>
<path d="M533.77 77.3081C537.35 77.3081 539.22 79.1781 539.22 83.0681C539.22 86.9581 537.35 88.9781 533.77 88.9781H499.23V123.838H541.09C544.67 123.838 546.54 125.708 546.54 129.748C546.54 133.788 544.67 135.658 541.09 135.658H493.32C488.5 135.658 486.47 133.638 486.47 128.808V41.3681C486.47 36.5481 488.49 34.5181 493.32 34.5181H539.85C543.43 34.5181 545.3 36.3881 545.3 40.4281C545.3 44.4681 543.43 46.3381 539.85 46.3381H499.24V77.2981H533.78L533.77 77.3081Z" fill="#4E342E"/>
</svg>
